<?xml version="1.0" encoding="UTF-8"?><svg id="_レイヤー_2" xmlns="http://www.w3.org/2000/svg" viewBox="0 0 1000 572.54"><defs><style>.cls-1{fill:#1d2088;}</style></defs><g id="_レイヤー_1-2"><path class="cls-1" d="m143.12,108.46h-37.53c2.69,7,4.13,15.08,4.13,24.06,0,39.51-29.45,61.41-60.7,61.41H8.62v-122.11h39.15c22.45,0,42.38,9.7,53.33,27.65h42.02v8.98Zm-42.92,24.06c0-33.76-24.96-51.72-51.54-51.72h-30.71v104.15h29.63c26.94,0,52.62-18.32,52.62-52.44Z"/><path class="cls-1" d="m203.27,161.43v-26.04h-54.05v49.56h63.57v8.98h-72.91v-122.11h71.29v8.98h-61.95v45.61h63.39v26.04h31.43v8.98h-40.76Z"/><path class="cls-1" d="m248.7,100.73c0,37.35,64.65,14.73,64.65,61.77,0,21.91-17.42,33.22-37.71,33.22-22.27,0-40.58-11.49-40.4-43.28h9.7c0,22.63,9.7,33.94,30.53,33.94,14.55,0,28.19-7.18,28.19-23.88,0-38.79-64.29-15.08-64.65-61.77-.18-19.93,16.34-30.71,35.74-30.71,17.96,0,31.43,7.72,35.38,25.14h38.61v8.98h-47.05c-.54-15.08-9.34-24.6-26.94-24.78-12.57-.18-26.04,6.82-26.04,21.37Z"/><path class="cls-1" d="m394.51,135.75h-40.58v58.18h-9.34v-122.11h9.34v54.95h40.58v8.98Z"/><path class="cls-1" d="m538.88,168.97h-42.02c-9.7,17.06-27.3,26.76-48.85,26.76-33.04,0-60.7-26.94-60.7-62.85s27.65-62.85,60.7-62.85c27.83,0,49.02,15.08,56.21,39.51h-10.42c-6.64-19.04-23.16-30.17-45.79-30.17-27.83,0-51,22.45-51,53.51s23.34,53.51,51,53.51c24.42,0,44.18-14.72,47.23-42.92h-49.38v-8.98h59.44c0,9.52-1.44,17.96-4.31,25.5h37.89v8.98Z"/><path class="cls-1" d="m535.1,71.82h6.64l78.29,104.15v-104.15h9.34v122.11h-7l-77.94-103.26v103.26h-9.34v-122.11Z"/><path class="cls-1" d="m161.08,351.99h-46.51c-8.62,19.93-29.27,33.04-53.69,33.04-33.04,0-60.88-26.94-60.88-62.85s27.83-62.85,60.88-62.85c27.84,0,50.82,16.88,56.75,41.84h-10.24c-5.39-19.57-23.88-32.5-46.51-32.5-27.83,0-51.18,22.45-51.18,53.51s23.52,53.51,51.18,53.51c22.63,0,41.12-12.93,46.51-32.68h53.69v8.98Z"/><path class="cls-1" d="m204.35,334.93l4.85,8.08c12.21,20.29,24.78,31.25,37.35,31.25h6.11v8.98h-5.93c-15.8,0-29.45-8.98-43.82-33.22l-8.98-14.91h-25.68v48.13h-9.34v-122.11h39.87c24.24,0,42.74,10.77,44.18,34.12h42.74v8.98h-43.1c-2.87,19.39-18.86,29.27-38.25,30.71Zm28.91-37.17c0-19.93-14.19-27.65-37.89-27.65h-27.12v56.03h28.37c21.55,0,36.63-7.9,36.63-28.37Z"/><path class="cls-1" d="m428.27,234.01v36.1h-9.34v-27.12h-63.75v27.12h-67.34v45.61h60.34v8.98h-60.34v49.56h63.57v8.98h-72.91v-122.11h67.34v-27.12h82.43Z"/><path class="cls-1" d="m495.6,270.11h-63.75l46.15,113.13h-10.42l-14.01-35.2h-59.98l-13.83,35.2h-10.42l49.38-122.11h76.86v8.98Zm-45.61,68.96l-26.4-66.8-26.4,66.8h52.8Z"/><path class="cls-1" d="m608.91,354.51h-71.83v28.73h-9.34v-113.13h-43.82v-8.98h97.15v8.98h-44v75.42h71.83v8.98Z"/><path class="cls-1" d="m606.93,261.13h9.34v122.11h-9.34v-122.11Z"/><path class="cls-1" d="m738.91,270.11l-44.71,113.13h-9.52l-47.23-122.11h10.06l41.84,109.36,43.28-109.36h37.35l3.59,8.98h-34.66Z"/><path class="cls-1" d="m766.02,261.13h9.34v122.11h-9.34v-122.11Z"/><path class="cls-1" d="m909.14,270.11h-61.23v113.13h-9.34v-113.13h-43.82v-8.98h114.39v8.98Z"/><path class="cls-1" d="m1000,261.13l-46.15,88.89c-13.29,25.5-29.27,33.22-43.82,33.22h-3.41v-8.98h3.59c11.31,0,25.14-7.18,37.35-31.25l.9-1.62-45.79-80.27h11.13l39.69,70.39,35.56-70.39h10.95Z"/><path class="cls-1" d="m104.51,572.54H8.62v-122.11h9.34v113.13h83.5l3.05,8.98Z"/><path class="cls-1" d="m251.22,450.43v8.98h-31.07v77.94h-31.79l14.37,35.2h-10.42l-14.01-35.2h-59.98l-13.83,35.2h-10.42l49.38-122.11h9.52l31.79,77.94h26.04v-77.94h40.4Zm-102.9,11.13l-26.4,66.8h52.8l-26.4-66.8Z"/><path class="cls-1" d="m245.47,450.43h37.53c23.16,0,38.25,10.59,38.25,30.53s-16.34,26.76-22.81,28.19c7.36,1.44,26.22,8.08,26.22,29.81s-16.7,33.58-36.99,33.58h-42.2v-122.11Zm35.91,54.59c12.75,0,30.35-5.03,30.35-23.35,0-14.18-10.42-22.27-29.27-22.27h-27.65v45.61h26.58Zm4.85,58.54c16.7,0,28.73-9.88,28.73-25.14,0-17.6-16.52-24.42-33.58-24.42h-26.58v49.56h31.43Z"/><path class="cls-1" d="m349.74,49.52c-13.65,0-24.76-11.11-24.76-24.76S336.09,0,349.74,0s24.76,11.11,24.76,24.76-11.11,24.76-24.76,24.76Zm0-41.26c-9.1,0-16.5,7.4-16.5,16.5s7.4,16.5,16.5,16.5,16.5-7.4,16.5-16.5-7.4-16.5-16.5-16.5Z"/><path class="cls-1" d="m611.46,253.72c-13.65,0-24.76-11.11-24.76-24.76s11.11-24.76,24.76-24.76,24.76,11.11,24.76,24.76-11.11,24.76-24.76,24.76Zm0-41.26c-9.1,0-16.5,7.4-16.5,16.5s7.4,16.5,16.5,16.5,16.5-7.4,16.5-16.5-7.4-16.5-16.5-16.5Z"/><path class="cls-1" d="m770.22,151.31c-13.65,0-24.76-11.11-24.76-24.76s11.11-24.76,24.76-24.76,24.76,11.11,24.76,24.76-11.11,24.76-24.76,24.76Zm0-41.26c-9.1,0-16.5,7.4-16.5,16.5s7.4,16.5,16.5,16.5,16.5-7.4,16.5-16.5-7.4-16.5-16.5-16.5Z"/></g></svg>