<?xml version="1.0" encoding="UTF-8"?><svg id="_レイヤー_2" xmlns="http://www.w3.org/2000/svg" viewBox="0 0 1240 709.95"><defs><style>.cls-1{fill:#0d1629;}</style></defs><g id="_レイヤー_1-2"><path class="cls-1" d="m177.47,134.49h-46.54c3.34,8.68,5.12,18.7,5.12,29.84,0,48.99-36.52,76.15-75.26,76.15H10.69V89.06h48.54c27.83,0,52.55,12.02,66.13,34.29h52.11v11.13Zm-53.22,29.84c0-41.86-30.95-64.13-63.91-64.13H22.27v129.15h36.74c33.4,0,65.24-22.71,65.24-65.02Z"/><path class="cls-1" d="m252.06,200.17v-32.29h-67.02v61.46h78.83v11.13h-90.4V89.06h88.4v11.13h-76.82v56.56h78.6v32.29h38.97v11.13h-50.55Z"/><path class="cls-1" d="m308.38,124.91c0,46.32,80.16,18.26,80.16,76.6,0,27.17-21.6,41.19-46.76,41.19-27.61,0-50.32-14.25-50.1-53.66h12.02c0,28.06,12.02,42.08,37.85,42.08,18.04,0,34.96-8.91,34.96-29.61,0-48.1-79.72-18.7-80.16-76.6-.22-24.72,20.26-38.08,44.31-38.08,22.27,0,38.97,9.58,43.87,31.17h47.88v11.13h-58.34c-.67-18.7-11.58-30.51-33.4-30.73-15.59-.22-32.29,8.46-32.29,26.5Z"/><path class="cls-1" d="m489.19,168.33h-50.32v72.15h-11.58V89.06h11.58v68.14h50.32v11.13Z"/><path class="cls-1" d="m668.21,209.53h-52.1c-12.02,21.15-33.85,33.18-60.57,33.18-40.97,0-75.26-33.4-75.26-77.94s34.29-77.94,75.26-77.94c34.51,0,60.79,18.7,69.7,48.99h-12.92c-8.24-23.6-28.72-37.41-56.78-37.41-34.51,0-63.24,27.83-63.24,66.36s28.95,66.36,63.24,66.36c30.28,0,54.78-18.26,58.56-53.22h-61.24v-11.13h73.71c0,11.8-1.78,22.27-5.34,31.62h46.98v11.13Z"/><path class="cls-1" d="m663.53,89.06h8.24l97.09,129.15V89.06h11.58v151.42h-8.68l-96.64-128.04v128.04h-11.58V89.06Z"/><path class="cls-1" d="m199.74,436.47h-57.67c-10.69,24.72-36.3,40.97-66.58,40.97-40.97,0-75.49-33.4-75.49-77.94s34.52-77.94,75.49-77.94c34.52,0,63.02,20.93,70.37,51.88h-12.69c-6.68-24.27-29.62-40.3-57.67-40.3-34.51,0-63.46,27.83-63.46,66.36s29.17,66.36,63.46,66.36c28.06,0,50.99-16.03,57.67-40.53h66.58v11.13Z"/><path class="cls-1" d="m253.39,415.32l6.01,10.02c15.14,25.16,30.73,38.75,46.32,38.75h7.57v11.13h-7.35c-19.59,0-36.52-11.13-54.33-41.19l-11.13-18.48h-31.84v59.68h-11.58v-151.42h49.43c30.06,0,53,13.36,54.78,42.31h53v11.13h-53.44c-3.56,24.05-23.38,36.3-47.43,38.08Zm35.85-46.09c0-24.72-17.59-34.29-46.98-34.29h-33.62v69.47h35.18c26.72,0,45.43-9.8,45.43-35.18Z"/><path class="cls-1" d="m531.05,290.17v44.76h-11.58v-33.62h-79.05v33.62h-83.5v56.56h74.82v11.13h-74.82v61.46h78.83v11.13h-90.4v-151.42h83.5v-33.62h102.21Z"/><path class="cls-1" d="m614.55,334.93h-79.05l57.23,140.28h-12.92l-17.37-43.65h-74.37l-17.15,43.65h-12.92l61.24-151.42h95.3v11.13Zm-56.56,85.51l-32.73-82.84-32.73,82.84h65.47Z"/><path class="cls-1" d="m755.05,439.59h-89.07v35.63h-11.58v-140.28h-54.33v-11.13h120.47v11.13h-54.55v93.52h89.07v11.13Z"/><path class="cls-1" d="m752.59,323.8h11.58v151.42h-11.58v-151.42Z"/><path class="cls-1" d="m916.25,334.93l-55.45,140.28h-11.8l-58.56-151.42h12.47l51.88,135.61,53.66-135.61h46.32l4.45,11.13h-42.98Z"/><path class="cls-1" d="m949.87,323.8h11.58v151.42h-11.58v-151.42Z"/><path class="cls-1" d="m1127.33,334.93h-75.93v140.28h-11.58v-140.28h-54.33v-11.13h141.84v11.13Z"/><path class="cls-1" d="m1240,323.8l-57.23,110.22c-16.48,31.62-36.3,41.19-54.33,41.19h-4.23v-11.13h4.45c14.03,0,31.17-8.91,46.32-38.75l1.11-2-56.78-99.54h13.81l49.21,87.29,44.09-87.29h13.58Z"/><path class="cls-1" d="m129.6,709.95H10.69v-151.42h11.58v140.28h103.54l3.78,11.13Z"/><path class="cls-1" d="m311.51,558.54v11.13h-38.52v96.64h-39.41l17.81,43.64h-12.92l-17.37-43.64h-74.37l-17.15,43.64h-12.91l61.24-151.42h11.8l39.41,96.64h32.29v-96.64h50.1Zm-127.59,13.81l-32.73,82.83h65.47l-32.73-82.83Z"/><path class="cls-1" d="m304.38,558.54h46.54c28.72,0,47.43,13.14,47.43,37.85s-20.26,33.18-28.28,34.96c9.13,1.78,32.51,10.02,32.51,36.96s-20.71,41.64-45.87,41.64h-52.33v-151.42Zm44.53,67.69c15.81,0,37.63-6.24,37.63-28.95,0-17.59-12.92-27.61-36.3-27.61h-34.29v56.56h32.96Zm6.01,72.59c20.71,0,35.63-12.25,35.63-31.17,0-21.82-20.49-30.28-41.64-30.28h-32.96v61.46h38.97Z"/><path class="cls-1" d="m433.68,61.4c-16.93,0-30.7-13.77-30.7-30.7S416.75,0,433.68,0s30.7,13.77,30.7,30.7-13.77,30.7-30.7,30.7Zm0-51.16c-11.28,0-20.46,9.18-20.46,20.46s9.18,20.46,20.46,20.46,20.46-9.18,20.46-20.46-9.18-20.46-20.46-20.46Z"/><path class="cls-1" d="m758.21,314.62c-16.93,0-30.7-13.77-30.7-30.7s13.77-30.7,30.7-30.7,30.7,13.77,30.7,30.7-13.77,30.7-30.7,30.7Zm0-51.16c-11.28,0-20.46,9.18-20.46,20.46s9.18,20.46,20.46,20.46,20.46-9.18,20.46-20.46-9.18-20.46-20.46-20.46Z"/><path class="cls-1" d="m955.07,187.62c-16.93,0-30.7-13.77-30.7-30.7s13.77-30.7,30.7-30.7,30.7,13.77,30.7,30.7-13.77,30.7-30.7,30.7Zm0-51.16c-11.28,0-20.46,9.18-20.46,20.46s9.18,20.46,20.46,20.46,20.46-9.18,20.46-20.46-9.18-20.46-20.46-20.46Z"/></g></svg>