<?xml version="1.0" encoding="UTF-8"?><svg id="_レイヤー_2" xmlns="http://www.w3.org/2000/svg" viewBox="0 0 374.52 93.22"><defs><style>.cls-1{fill:#fff;}</style></defs><g id="_レイヤー_1-2"><path class="cls-1" d="m64.06,51.65h-17.87c1.28,3.34,1.97,7.18,1.97,11.46,0,18.82-14.03,29.25-28.91,29.25H0v-58.16h18.64c10.69,0,20.18,4.62,25.4,13.17h20.01v4.28Zm-20.44,11.46c0-16.08-11.89-24.63-24.55-24.63H4.45v49.6h14.11c12.83,0,25.06-8.72,25.06-24.97Z"/><path class="cls-1" d="m92.71,76.88v-12.4h-25.74v23.6h30.28v4.28h-34.72v-58.16h33.95v4.28h-29.51v21.72h30.19v12.4h14.97v4.28h-19.41Z"/><path class="cls-1" d="m114.34,47.98c0,17.79,30.79,7.01,30.79,29.42,0,10.43-8.3,15.82-17.96,15.82-10.6,0-19.33-5.47-19.24-20.61h4.62c0,10.78,4.62,16.16,14.54,16.16,6.93,0,13.43-3.42,13.43-11.37,0-18.47-30.62-7.18-30.79-29.42-.09-9.49,7.78-14.62,17.02-14.62,8.55,0,14.97,3.68,16.85,11.97h18.39v4.28h-22.41c-.26-7.18-4.45-11.72-12.83-11.8-5.99-.09-12.4,3.25-12.4,10.18Z"/><path class="cls-1" d="m183.78,64.65h-19.33v27.71h-4.45v-58.16h4.45v26.17h19.33v4.28Z"/><path class="cls-1" d="m252.55,80.48h-20.01c-4.62,8.12-13,12.74-23.26,12.74-15.74,0-28.91-12.83-28.91-29.93s13.17-29.93,28.91-29.93c13.26,0,23.35,7.18,26.77,18.82h-4.96c-3.16-9.07-11.03-14.37-21.81-14.37-13.26,0-24.29,10.69-24.29,25.49s11.12,25.49,24.29,25.49c11.63,0,21.04-7.01,22.49-20.44h-23.52v-4.28h28.31c0,4.53-.68,8.55-2.05,12.14h18.05v4.28Z"/><path class="cls-1" d="m250.75,34.21h3.16l37.29,49.6v-49.6h4.45v58.16h-3.34l-37.12-49.18v49.18h-4.45v-58.16Z"/><path class="cls-1" d="m162.47,23.58c-6.5,0-11.79-5.29-11.79-11.79s5.29-11.79,11.79-11.79,11.79,5.29,11.79,11.79-5.29,11.79-11.79,11.79Zm0-19.65c-4.33,0-7.86,3.53-7.86,7.86s3.53,7.86,7.86,7.86,7.86-3.53,7.86-7.86-3.53-7.86-7.86-7.86Z"/><path class="cls-1" d="m362.72,72.06c-6.5,0-11.79-5.29-11.79-11.79s5.29-11.79,11.79-11.79,11.79,5.29,11.79,11.79-5.29,11.79-11.79,11.79Zm0-19.65c-4.33,0-7.86,3.53-7.86,7.86s3.53,7.86,7.86,7.86,7.86-3.53,7.86-7.86-3.53-7.86-7.86-7.86Z"/></g></svg>