<?xml version="1.0" encoding="UTF-8"?><svg id="_レイヤー_2" xmlns="http://www.w3.org/2000/svg" viewBox="0 0 476.27 86.12"><defs><style>.cls-1{fill:#fff;}</style></defs><g id="_レイヤー_1-2"><path class="cls-1" d="m76.72,70.39h-22.15c-4.1,9.49-13.94,15.74-25.57,15.74-15.74,0-28.99-12.83-28.99-29.93s13.26-29.93,28.99-29.93c13.26,0,24.2,8.04,27.03,19.93h-4.87c-2.57-9.32-11.37-15.48-22.15-15.48-13.26,0-24.37,10.69-24.37,25.49s11.2,25.49,24.37,25.49c10.78,0,19.59-6.16,22.15-15.57h25.57v4.28Z"/><path class="cls-1" d="m97.32,62.26l2.31,3.85c5.82,9.67,11.8,14.88,17.79,14.88h2.91v4.28h-2.82c-7.53,0-14.03-4.28-20.87-15.82l-4.28-7.1h-12.23v22.92h-4.45V27.11h18.99c11.55,0,20.35,5.13,21.04,16.25h20.35v4.28h-20.53c-1.37,9.24-8.98,13.94-18.22,14.62Zm13.77-17.7c0-9.49-6.76-13.17-18.05-13.17h-12.91v26.68h13.51c10.26,0,17.45-3.76,17.45-13.51Z"/><path class="cls-1" d="m203.97,14.2v17.19h-4.45v-12.91h-30.36v12.91h-32.07v21.72h28.74v4.28h-28.74v23.61h30.28v4.28h-34.72V27.11h32.07v-12.91h39.26Z"/><path class="cls-1" d="m236.04,31.39h-30.36l21.98,53.88h-4.96l-6.67-16.76h-28.57l-6.59,16.76h-4.96l23.52-58.16h36.6v4.28Zm-21.72,32.84l-12.57-31.82-12.57,31.82h25.14Z"/><path class="cls-1" d="m290,71.58h-34.21v13.68h-4.45V31.39h-20.87v-4.28h46.27v4.28h-20.95v35.92h34.21v4.28Z"/><path class="cls-1" d="m289.06,27.11h4.45v58.16h-4.45V27.11Z"/><path class="cls-1" d="m351.92,31.39l-21.3,53.88h-4.53l-22.49-58.16h4.79l19.93,52.09,20.61-52.09h17.79l1.71,4.28h-16.51Z"/><path class="cls-1" d="m364.83,27.11h4.45v58.16h-4.45V27.11Z"/><path class="cls-1" d="m432.99,31.39h-29.16v53.88h-4.45V31.39h-20.87v-4.28h54.48v4.28Z"/><path class="cls-1" d="m476.27,27.11l-21.98,42.34c-6.33,12.14-13.94,15.82-20.87,15.82h-1.62v-4.28h1.71c5.39,0,11.97-3.42,17.79-14.88l.43-.77-21.81-38.23h5.3l18.9,33.53,16.93-33.53h5.22Z"/><path class="cls-1" d="m291.22,23.58c-6.5,0-11.79-5.29-11.79-11.79s5.29-11.79,11.79-11.79,11.79,5.29,11.79,11.79-5.29,11.79-11.79,11.79Zm0-19.65c-4.33,0-7.86,3.53-7.86,7.86s3.53,7.86,7.86,7.86,7.86-3.53,7.86-7.86-3.53-7.86-7.86-7.86Z"/></g></svg>