<?xml version="1.0" encoding="UTF-8"?><svg id="_レイヤー_2" xmlns="http://www.w3.org/2000/svg" viewBox="0 0 150.52 58.16"><defs><style>.cls-1{fill:#1d2088;}</style></defs><g id="_レイヤー_1-2"><path class="cls-1" d="m45.67,58.16H0V0h4.45v53.88h39.77l1.45,4.28Z"/><path class="cls-1" d="m115.54,0v4.28h-14.8v37.12h-15.14l6.84,16.76h-4.96l-6.67-16.76h-28.57l-6.59,16.76h-4.96L64.23,0h4.53l15.14,37.12h12.4V0h19.24Zm-49.01,5.3l-12.57,31.82h25.14l-12.57-31.82Z"/><path class="cls-1" d="m112.8,0h17.87c11.03,0,18.22,5.05,18.22,14.54s-7.78,12.74-10.86,13.43c3.51.68,12.49,3.85,12.49,14.2s-7.95,15.99-17.62,15.99h-20.1V0Zm17.1,26c6.07,0,14.45-2.4,14.45-11.12,0-6.76-4.96-10.6-13.94-10.6h-13.17v21.72h12.66Zm2.31,27.88c7.95,0,13.68-4.7,13.68-11.97,0-8.38-7.87-11.63-15.99-11.63h-12.66v23.6h14.97Z"/></g></svg>