<?xml version="1.0" encoding="UTF-8"?><svg id="_レイヤー_2" xmlns="http://www.w3.org/2000/svg" viewBox="0 0 300 300"><defs><style>.cls-1{fill:#0369a1;}</style></defs><g id="_レイヤー_1-2"><path class="cls-1" d="m149.65,12.15c36.73,0,71.26,14.3,97.23,40.27,25.97,25.97,40.27,60.5,40.27,97.23s-14.3,71.26-40.27,97.23c-25.97,25.97-60.5,40.27-97.23,40.27s-71.26-14.3-97.23-40.27c-25.97-25.97-40.27-60.5-40.27-97.23s14.3-71.26,40.27-97.23c25.97-25.97,60.5-40.27,97.23-40.27m.35-12.15C67.16,0,0,67.16,0,150s67.16,150,150,150,150-67.16,150-150S232.84,0,150,0h0Z"/><path class="cls-1" d="m131.19,225v-55.76h-56.19v-38.49h56.19v-55.76h37.46v55.76h56.34v38.49h-56.34v55.76h-37.46Z"/></g></svg>