<?xml version="1.0" encoding="UTF-8"?>
<svg id="b" data-name="レイヤー 2" xmlns="http://www.w3.org/2000/svg" viewBox="0 0 180 43.77">
  <defs>
    <style>
      .d {
        fill: #fff;
      }
    </style>
  </defs>
  <g id="c" data-name="レイヤー 1">
    <g>
      <path class="d" d="M26.42,22.4c-.1,1.29-.78,2.54-.46,3.85,1.3.31,2.61.55,3.86,1.03,3.04,1.16,7.74,4.67,8.78,7.83,1.11,3.38-.53,7.31-4.41,7.57-6.45.42-10.68-9.25-10.24-14.7-1.48-.14-2.89-.04-4.38,0-.04.66.06,1.35,0,2.01-.37,4.25-1.3,8.64-4.81,11.45-5.95,4.77-12.26-1.14-8.62-7.4.99-1.7,4.05-4.6,5.75-5.62s3.78-1.76,5.76-2.03c-.16-.54-.66-3.89-1.13-3.97-1.66.4-3.38.55-5.08.48-3.78-.17-7.73-1.44-10.15-4.54-3.37-4.3.25-10,5.7-9.02,4.24.76,8.92,7.02,10.68,10.74l2.25-.68c-2.77-3.01-4.67-6.84-4.55-11.02l1.73.03c.26,2.06.55,3.91,1.45,5.81.31.65,2.19,3.63,2.72,3.77.17.05.26.04.41-.06.19-.13,1.28-1.71,1.47-2.03,1.38-2.32,2.41-5.94,2.39-8.64-.05-6.53-6.89-6.63-7.7-.52l-1.59.08c-.45-4.59,4.76-8.44,8.75-5.34s2.08,11.25-.04,15.01c-.42.75-1.49,1.85-1.75,2.45-.08.19-.23.21.04.38.42.19,1.77.96,2.11.72.47-1.18,1.08-2.27,1.74-3.34,1.41-2.3,4.11-5.86,6.42-7.22,6.92-4.09,12.89,4.05,6.71,9.5-3.74,3.3-9,4.07-13.82,3.42ZM27.28,20.64c4.02.55,8.5-.29,11.64-2.97,1.97-1.68,3.04-4.27.97-6.4-2.4-2.46-5.84-.23-7.71,1.75-.69.73-5.49,7.05-4.89,7.61ZM11.83,14.75c-1.15-1.21-3.1-2.95-4.7-3.44-4.03-1.22-6.84,2.85-4.17,6.09s6.98,3.85,10.94,3.59c.36-.02,1.99-.2,2-.44-1.2-2.02-2.46-4.09-4.08-5.8ZM24.65,21.87l-3.05-1.35-3.06,1.34.88,4.19h4.54s.7-4.18.7-4.18ZM25.71,28.16c.24,2,.39,3.94,1.04,5.86.78,2.28,3.42,6.13,5.94,6.65,1.65.34,3.45-.01,4.06-1.73,1.16-3.26-1.07-5.58-3.44-7.45-2.24-1.77-4.74-2.97-7.6-3.33ZM17.66,28.33c-3.47.25-8.92,4.2-10.27,7.31-1.63,3.77,1.29,7.01,5.14,5.14,4.23-2.71,5.29-7.71,5.13-12.45Z"/>
      <path class="d" d="M104.43,13.29l-.9-1.73c-.42.1-1.74.37-2,0l-.25-2.29,2.15-.04,1.35-1.45c-1.27-1.16-2.69-2.18-4.2-2.98l1.25-2.34,1.56.61,1.57-3.07,2.62.96-2.25,3.71c-.04.26.61.8.84.86.5.13,2.31-3.21,2.66-3.75l2.59.67-.2.76-4.17,5.71,2.8-.18-.45-1.23,2.2-.62,1.74,4.81-2.62.7-.28-1.24-3.57.19.87,1.92h5.25v2.45h-11.2c-.04.78,1.68,5.43,2.19,5.42,1.31-1.42,2.65-2.93,3.41-4.72l2.8,1.4c-1.09,2.19-2.82,3.95-4.51,5.68.44.96,1.95,2.03,3.01,1.84,1.13-.21,1.82-3.34,2.02-4.37.1-.09,2.35,1.03,2.45,1.14.37.39-.44,2.46-.67,3-2.15,5.08-6.03,3.68-9.04.26-1.1.72-3.69,2.67-4.94,2.74-.62.03-.38-1.27-1.35-1.38-2.6-.31-5.83.25-8.5,0l-.16,1.5c-.23.16-2.2.21-2.46-.19v-10.84l.26-.26h12.33v7.87l2.93-1.83c-1.46-2.23-2.05-4.85-3.02-7.26h-13.38v-2.45h12.95l-1.05-12.94h3.15c-.12,4.34.23,8.66.87,12.94h3.32ZM91.13,19.07h-2.45v1.57h2.45v-1.57ZM96.03,19.07h-2.62v1.57h2.62v-1.57ZM91.13,22.74h-2.45v1.75s2.29-.08,2.29-.08l.16-1.67ZM96.03,22.74h-2.62v1.75h2.62v-1.75Z"/>
      <path class="d" d="M134.34.18l.17,7.17h12.42v3.32h-11.72c1.05,6.67,5.68,12.64,12.42,14.17l-1.95,3.29-.23.05c-5.97-2.31-10.53-6.99-12.42-13.14-2.15,5.62-6.52,11.05-12.39,12.92l-2.04-3.12c6.19-2.18,10.95-7.74,12.25-14.17h-11.72v-3.32h12.07V.44l.26-.26h2.89Z"/>
      <path class="d" d="M174.93,9.97v2.62c-.85.33-1.59,1.28-2.32,1.8-1.53,1.09-3.32,1.75-4.8,2.7-.17.11-.31-.02-.23.39h12.42v2.71l-.26.26h-12.33v6.03c0,.08-.48.84-.61.96-1.38,1.37-5.87.41-7.79.7l-.52-3.15h5.16s.33-.16.38-.23c.03-.16.23-.46.23-.56v-3.76c-3.58.09-7.19-.12-10.77,0-.32.01-1.83.44-1.83-.08v-2.71l12.31-.2c.55-.18.18-1.91.29-2.43,1.09.15,1.78-.1,2.74-.49.75-.31,2.25-1.01,2.51-1.78h-12.95v-2.8h18.37Z"/>
      <path class="d" d="M63.14,2.27c4.72,0,9.49-.61,13.97-2.08l1.77,2.95c-4.12.97-8.35,1.66-12.59,1.75v3.67h13.29v2.97h-5.25v12.07h-3.15v-12.07h-4.9c0,3.96-.53,8.05-2.97,11.29l-2.61-1.96c.49-.89,1.09-1.74,1.47-2.69.27-.69.97-2.95.97-3.58V2.27Z"/>
      <path class="d" d="M164.78,4.9l-1.93-3.76L165.57,0c.31,0,.43.25.58.46.79,1.11,1.25,2.8,1.95,4l-.7.44h4.55L173.96.05l3.24,1.11-1.74,3.74h3.67v6.82h-3.15v-3.85l-20.64.18c-.09.06.17.22.17.26v3.59h-2.97l-.17-6.82h3.85l-1.75-3.58,2.75-1.11c.23-.05.27.14.38.26.38.4,2.03,3.53,1.96,3.99-.03.2-.44-.02-.36.28h5.6Z"/>
      <path class="d" d="M59.12,11.89v8.83c0,.36.8,1.81,1.11,2.12.84.85,3.23,1.64,4.4,1.64h15.22c.06,0,.33-.45.26.09-.11.86-.61,1.86-.7,2.76l-.66.25c-4.46-.1-9.17.31-13.61.06-3.09-.17-6.12-.78-7.51-3.85-1.05,1.17-2.21,2.57-3.41,3.58-.17.14-1.09.91-1.23.78l-1.32-3.5,4.3-3.41v-6.21h-4.02v-3.15h7.17Z"/>
      <path class="d" d="M87.9,9.62c.1-.03,1.33-1.57,1.24-1.75-1.29-1.08-2.44-2.16-3.96-2.89l1.24-2.1,1.66.29L89.84.02l2.34.85c.1.11-.6,1.39-.73,1.63-.26.45-1.46,1.96-1.52,2.17-.13.48.67.91.94,1.27l2.55-3.83,2.61,1.04-4.72,6.29,2.8-.17-.35-1.57,2.26-.52,1.4,4.79-2.33.6-.37-.86-9.52.54-.18-2.62h2.89Z"/>
      <polygon class="d" points="66.29 35.51 68.19 35.53 71.19 40.75 71.19 35.51 72.94 35.51 72.94 43.73 71.04 43.7 67.87 38.13 67.87 43.73 66.29 43.73 66.29 35.51"/>
      <polygon class="d" points="116.32 40.75 116.32 35.33 117.9 35.33 117.9 43.55 116.06 43.38 113 38.13 113 43.55 111.25 43.55 111.25 35.33 113.27 35.5 116.32 40.75"/>
      <path class="d" d="M147.2,35.33c2.14.27,2.54,3.09.79,4.11,1.26.81.68,2.06.88,3.14.06.34.39.44.34.79l-2.02-.16c-.18-.65,0-1.32-.12-1.98-.3-1.69-1.69-.55-2.93-.83v3.15h-1.75v-8.22c1.52.14,3.33-.18,4.81,0ZM144.14,36.91l.08,1.94c1.01.53,3.59.1,3.04-1.47-.05-.15-.48-.47-.58-.47h-2.54Z"/>
      <path class="d" d="M75.56,43.55v-8.05c1.33-.16,2.91-.32,4.24-.13,3.1.45,3.46,5.22,1.71,7.21-.23.26-1.21.96-1.49.96h-4.46ZM77.31,42.15c2.72.25,3.56-.78,3.33-3.42-.21-2.36-1.43-1.78-3.33-1.83v5.25Z"/>
      <polygon class="d" points="139.94 35.33 139.94 36.91 135.57 36.91 135.57 38.48 139.59 38.48 139.59 40.05 135.57 40.05 135.57 41.98 140.12 41.98 140.12 43.55 133.82 43.55 133.82 35.33 139.94 35.33"/>
      <path class="d" d="M157.96,37.6h-1.64c-.19-1.68-3.55-1.58-3.05.05.36,1.2,4.91.31,5.03,3.21.14,3.16-5.22,3.56-6.54,1.45-.93-1.48-.25-1.78,1.28-1.54,0,2.48,4.93,1.16,3.22-.21-1.16-.93-4.34-.26-4.73-2.57-.68-3.92,6.41-4.17,6.43-.4Z"/>
      <path class="d" d="M54.22,35.51v3.15c1.01-.48,2.13-2.67,2.98-3.06.58-.26,1.62,0,2.27-.09l-3.29,3.41,3.47,4.81-2.28-.08-2.54-3.41c-.09.15-.61.73-.61.78v2.71h-1.75v-8.22h1.75Z"/>
      <path class="d" d="M103.9,35.33v6.03c0,1.15,2.97,1.35,2.97-.17v-5.86h1.75v6.38c0,.49-.81,1.46-1.28,1.7-.92.47-3,.47-3.92,0-.72-.37-1.45-1.62-1.45-2.4v-5.68h1.92Z"/>
      <path class="d" d="M88.66,35.36l2.82,8.2-1.91-.02-.47-1.57-3.06.11-.5,1.39-1.76.08,2.82-8.2h2.05ZM87.81,37.6c-.45-.07-.27.04-.36.25-.34.76-.46,1.79-.86,2.55h1.92s-.7-2.8-.7-2.8Z"/>
      <path class="d" d="M58.59,8.22l-6.12-4.98,1.92-2.46c.25-.12,2.58,1.49,2.96,1.77.51.37,2.91,2.32,3.08,2.7.11.23.11.29,0,.52-.3.64-1.65,1.64-1.85,2.45Z"/>
      <path class="d" d="M126.63,35.35l1.68,5.93,1.75-5.78,1.84-.17-2.73,8.23-1.8-.03-2.62-7.96c-.08-.33,0-.21.24-.24s1.59-.04,1.65.02Z"/>
      <polygon class="d" points="170.9 35.16 170.74 36.65 168.45 36.73 168.45 43.38 166.53 43.38 166.53 36.73 164.24 36.65 164.08 35.16 170.9 35.16"/>
      <polygon class="d" points="174.93 40.14 172.13 35.16 174.23 35.24 175.89 38.66 177.4 35.18 179.48 35.16 176.68 40.32 176.68 43.38 174.93 43.38 174.93 40.14"/>
      <rect class="d" x="160.41" y="35.16" width="1.75" height="8.22"/>
      <rect class="d" x="93.41" y="35.33" width="1.75" height="8.22"/>
      <rect class="d" x="120.7" y="35.33" width="1.75" height="8.22"/>
      <rect class="d" x="61.75" y="35.51" width="1.75" height="8.22"/>
    </g>
  </g>
</svg>