<?xml version="1.0" encoding="UTF-8"?>
<svg id="b" data-name="レイヤー 2" xmlns="http://www.w3.org/2000/svg" viewBox="0 0 1251.8 334.8">
  <g id="c" data-name="レイヤー 1">
    <g id="d" data-name="J1fqfp.tif">
      <g>
        <path d="M14.3.2l212.7-.2c8.3.3,15.7,7.2,16.3,15.6v302.9c-1.2,10.2-7.9,15.5-17.9,16.3H18.6C7.6,333.9,1,328.2,0,316.9V17.8C.7,8.5,5.1,2.6,14.3.2Z" fill="#204d76"/>
        <path d="M922.7,9.9v51.6h89.7v22.8h-85.1c7.7,48.6,40.5,92.3,89.7,104,.2.9-.1,1.5-.4,2.2-2.6,6.6-11,15.3-14.4,21.9-42.3-18.1-77.6-50.6-89.3-96.3-.9-.7-3.6,7.1-3.9,7.9-17.9,38.4-45.9,72.9-87.2,87l-14.5-22.7c45.7-15.7,79.9-57,89.7-104h-85.9v-22.8h88.2V9.9h23.6Z" fill="#211715"/>
        <path d="M1216.1,81.2v19l-27.4,19.3c-5.8,3.3-11.5,6.8-17.4,9.9-2.5,1.3-7.8,2.8-9.4,4.1s-.4,1.4-.5,2.3h90.4v21.3h-90.4v39.8c0,.6-1.5,5.5-1.9,6.5-2.2,5.2-8.1,8.1-13.3,9.5l-44.4.4c-1.3-.3-4.1-19.8-4.3-22.8h36.9c.4,0,3.4-2.3,3.4-2.7v-30.7h-89.3c0,0-1.1-1.1-1.1-1.1v-20.1h90.4v-16.7c7.2.9,12.4-1,18.8-3.7,7.6-3.2,16.6-8,22.3-13.8h-95.8v-19.4c0,0,1.1-1.1,1.1-1.1h131.9Z" fill="#211815"/>
        <path d="M427.9,89.6c-.1,23.7-2.1,49.1-13.6,70.3s-6.8,11.8-8.7,11.5c-2.9-.4-13.7-11.8-18-12.8,8.9-13.2,15.3-27.7,17.4-43.7,1.9-30.3.4-60.9.9-91.4,33.5-.6,67.6-3.6,99.2-15.2l1.5.7,12.6,19.3c-29.5,9.1-60.6,11.4-91.2,14.1v26.6h96.5v20.5h-36.9c0,0-1.1,1.1-1.1,1.1v86.9h-22v-86.9c0,0-1.1-1.1-1.1-1.1h-35.3Z" fill="#211815"/>
        <path d="M1143.9,44.8l-14.4-28.1,20.8-7.5c1,.2,5.3,8.2,6.2,9.8,2.3,4.1,9.7,18.7,10.1,22.6s-6,1.6-6.7,3.3h34.6l14.5-35,24.6,6.9-13.7,28.1h27.4v49.3h-22v-28.8h-149.3c0,0-1.1,1.1-1.1,1.1v27.7h-21.3v-49.3h28.1l-12.9-26.6,20.8-7.6c3.1,3.4,17.3,30.8,15.6,32.7l-4.6,1.5h43.3Z" fill="#211815"/>
        <path d="M376.2,93.4v61.9c0,1.5,2.3,8,3.2,9.8,7.6,16.3,27.7,18.2,43.6,19.5h105.3s-5.8,22-5.8,22h-101.8c-16.8-1.4-37.5-3-48.5-17.6-2.6-3.5-3.9-7.6-6.1-11.3-9.2,12.3-20.2,23.6-32.7,32.6l-11.1-24.5c11.4-7.4,22.5-15.4,32-25.2v-45.2h-29.6v-22h51.7Z" fill="#211815"/>
        <path d="M625.6,23.7c1.4-.8,15.6,6.8,18.1,7.9l-35,45.2,22-.8-2.7-11.4,15.5-3.7,10,34.8c-2.4-.3-16.8,3.6-17.5,3s.1-7.1-2.7-6.9l-68,3.8-1.5-18.2c3.6-.2,6.7.8,10.3.8s9.2-.6,10.5-1,9.4-9.7,9.5-11c.2-2.5-24.4-22.1-28.8-23.8l9.2-15.9,11.3,6c4.1-8.3,9.5-16.1,12.2-25l17.4,7.9c-4.2,9.6-10.2,18.4-16.5,26.7-.5,1.9,7,8.7,7.8,8.5l18.8-27.2Z" fill="#211815"/>
        <path d="M441.6,264.2l23.6,41v-41h11.4v59.2h-12.5l-23.9-41v41h-12.2v-58.1c0,0,1.1-1.1,1.1-1.1h12.5Z" fill="#211815"/>
        <polygon points="767.6 264.2 791.2 305.1 791.2 264.2 802.6 264.2 802.6 323.4 789.7 323.4 766.1 282.4 766.1 323.4 754.7 323.4 754.7 264.2 767.6 264.2" fill="#211815"/>
        <path d="M1057.2,305.1c.3.3.2,4.8,3,7.2,4.3,3.9,19,4,21.5-2.1s-.3-7.1-4.5-8.8c-11.4-4.8-30.8-2.1-31.2-19.7-.7-25.9,46.4-25.6,46.2-.2h-11c-.9,0-1.3-3.2-1.9-4.2-5.7-8.9-27.1-3.9-20.6,6.2,3.5,5.5,27.1,3.8,33.4,13.7,8.2,12.9-3.6,26.4-16.9,27.6-14.3,1.2-29.6-3-30-19.8,1.8.3,11.7-.4,12.2,0Z" fill="#211815"/>
        <polygon points="961.5 264.2 961.5 274.8 930.3 274.8 930.3 287.7 959.2 287.7 959.2 297.6 930.3 297.6 930.3 312.7 963 312.7 963 323.4 918.1 323.4 918.1 264.2 961.5 264.2" fill="#211815"/>
        <path d="M340.5,287.7c3.8-1.9,21.5-23.5,23.2-23.5h14.8l-23.4,24.7,24.9,34.5h-15.6c-1.5,0-14.8-22.3-17.8-24.7-1.2-.9-6.1,4.2-6.1,4.6v20.1h-12.2v-59.2h11c0,0,1.1,1.1,1.1,1.1v22.4Z" fill="#211815"/>
        <path d="M700,264.2v39.8c0,.3,1.2,4.8,1.5,5.4,3,7.2,16.8,7,20,.1s1.3-4.5,1.3-4.7v-40.6h12.2v44.4c0,1.7-2.7,7.4-3.9,9-7.4,9.6-29.2,10-37.5,2s-5.7-9.1-5.7-11.8v-43.6h12.2Z" fill="#211815"/>
        <path d="M343.2,12.4c16.2,9.3,31.1,20.6,43.7,34.4l-15.6,19.3c-13-13.5-27.1-26-42.9-36l14.8-17.7Z" fill="#211815"/>
        <path d="M864.9,264.2l12.5,44,13.3-44h12.9l-20.2,59.2c-2.6-.5-10.7.9-12.1-.8l-19.4-58.5h12.9Z" fill="#211815"/>
        <path d="M1209.6,264.2c1.6.5,10.7,22.9,12.9,25.8l12.2-25.8h13.3l-19.8,37.6v21.6h-12.2v-22.4l-20.5-36.8c3.6.7,11-.9,14.1,0Z" fill="#211815"/>
        <polygon points="1185.7 264.2 1185.7 274.8 1168.2 274.8 1168.2 323.4 1155.3 323.4 1155.3 274.8 1137.8 274.8 1137.8 264.2 1185.7 264.2" fill="#211815"/>
        <path d="M637.7,264.2v59.2h-12.9v-58.1c0,0,1.1-1.1,1.1-1.1h11.8Z" fill="#221916"/>
        <rect x="395.2" y="264.2" width="12.2" height="59.2" fill="#211815"/>
        <rect x="823.1" y="264.2" width="12.2" height="59.2" fill="#211815"/>
        <rect x="1110.4" y="264.2" width="12.2" height="59.2" fill="#211815"/>
        <path d="M127.7,157.9l9,3c6.3-14.9,24.3-42.5,41.6-44.6,20.4-2.5,32.8,18.5,20.4,34.8-12.6,16.6-38.4,21.6-58.1,18.3-.2,3-4.1,13.9-1.6,15.6s7,1.3,8.8,1.8c19.2,5.7,53,29.6,36.7,52.6-14.9,21.1-40.2-.5-47.4-17.7-4.2-10-5.3-20.3-6.6-31-2.5,0-16.1-1-16.6,1.2,1.2,19.8-7.8,50.2-29,56.6-13.9,4.2-26.8-5.3-27.2-19.6s30.5-41.8,48.6-43.7c1.2-1.3-1.9-14.5-3.4-15s-14.2,1.6-18.2,1.5c-14.1-.6-34.4-7.6-42-20.3-9.5-15.9,2.8-35.1,21.3-32.7,17.9,2.4,36,27.7,43.1,43.1l8.3-4.2c-10.7-11.3-17-25.7-17.5-41.4,1.3.2,6.4-.4,6.8,0s.8,7.6,1.1,9.1c1.6,7.7,4.6,14.8,9.2,21.1.8,1.1,5.3,7,6.4,6.5,4.1-1.8,11.2-17.1,12.5-21.7,3.3-10.8,6.7-35.4-8.1-39s-14.9,3.6-16.8,10.2c-1.6,5.6,1.5,7.5-7.4,6.7-1.3-14.5,12.6-28.1,27.3-23.1,23.5,8,14.1,46.4,4.7,62.3s-6.7,8.7-6.2,9.3Z" fill="#fff"/>
        <path d="M698.1,75.2c1.6-.4,7.1-9.7,9.5-11l-30.3-22.1,9.1-16.2c1-.7,9,5.2,10.6,6l11.9-22.8,17.8,4.6c-3.2,10.6-10.2,19.3-15.9,28.6,0,.6,7,7.1,7.9,7.1l18.7-28.8c2.4.3,17.2,5.1,17.8,5.9,1.3,1.8-7.9,12.1-8.9,14.7l-24.2,32.4,22-1.5-2.7-9.9,15.6-4.5,12.2,34.9-17.8,4.6c-1.1-.2-1.2-8.4-3.2-9.1l-26.9,2.2,8.7,14.4h36.9v17.5h-82.1c4,13.6,8,27.9,16.3,39.5,10.1-10,19.3-21.3,25.5-34.1,2.6,1.9,17.6,8.2,18.7,9.9s-1.1,3.5-1.6,4.5c-7.4,13.5-19.9,26-30.7,36.9,2.9,2.5,5.4,6,8.3,8.4,21.5,17.2,25.3-12.3,29.7-27l18.2,8.4c-5.2,24.1-16.1,54.6-47.3,42.2-10.1-4-16.4-12.2-24.4-18.7-11.4,7.8-23.2,15.4-36.6,19.7-.7,0-4.7-10.6-6.9-10.7l-63.5.3c-1.5,1.1-.3,8.8-.7,11.1h-17.1c0,0-1.1-1.1-1.1-1.1v-78.9c0,0,1.1-1.1,1.1-1.1h90.1v56.9c3.5-.8,21.5-11.1,21.9-13.4-9.6-16.2-17-34-20.4-52.6h-98.8v-17.5h94.2c-4.2-31.4-7.1-63.1-7.6-94.9h21.3c.6,26.4.9,53.1,4.7,79.2.5,3.7,1.3,11.3,2.3,14.4s.5,1,1,1.3h23.2c.3-1.8-5.6-12.4-6.2-12.7-2.4-1.4-13.5,1.3-14.3.6l-2.3-15.6c-.2-.6.8-1.8,1.1-1.8,3.4,0,12.8.7,15.2,0ZM624.8,172.3v12.9h19.8v-12.9h-19.8ZM624.8,145.8v12.1h19.8v-12.1h-19.8ZM589.8,172.3v12.9h18.2v-12.9h-18.2ZM589.8,145.8v11c0,0,1.1,1.1,1.1,1.1h17.1v-12.1h-18.2Z" fill="#211715"/>
        <path d="M1012,264.2c17.3,1.9,21.6,22.6,7.2,31.9,10,2.5,5.7,14.2,7,21.5s2.3,3.5,2.9,5.9h-14.4c-1.6-5.5.6-16.3-2.2-20.7s-3.3-2-3.5-2h-16.3v22.8h-12.2v-59.2c10,.8,21.7-1.1,31.5,0ZM1009,290.7c.4,0,4-1.8,4.6-2.3,4-3.6,1.2-13.7-3.1-13.7h-17.9v15.9h16.3Z" fill="#211815"/>
        <path d="M495.6,323.4v-59.2h28.5c25.2,0,28.1,43.3,10.2,55.7-1.3.9-6.7,3.5-7.9,3.5h-30.8ZM521,313.5c4.6,0,9.3-5.9,10.6-9.9,2.3-6.7,2.4-22.4-4.2-26.9-.6-.4-3.8-1.9-4.1-1.9h-15.6v38.7h13.3Z" fill="#211815"/>
        <path d="M611.1,323.4h-13.7l-3.8-11.8-21.6-.4-4.6,12.2h-12.5l20.9-58.5c1.2-1.5,11.6-.7,14.1-.4l21.3,58.8ZM583.7,280.5c-.3-.8-.4-1.8-1.5-1.9l-6.8,22.8h15.2c-2.7-6.5-3.9-14.6-6.8-20.9Z" fill="#211815"/>
        <path d="M107.2,192.1c1.7,16.7-7.7,48-27.2,50.7-9,1.3-15.7-6.9-15.4-15.4.5-14.2,28.5-34.7,42.6-35.3Z" fill="#204d76"/>
        <path d="M144.8,163.2c-.6-.2-1.1-1-1-1.8.1-1.4,4.6-8.5,5.7-10.3,4.9-8,15.6-22.2,24-26.2,18.6-8.9,31.4,11.3,17.4,25s-21,13.3-27.8,13.3-15.4.8-18.2,0Z" fill="#204d76"/>
        <path d="M138.4,191.3c13.9,1.9,37.4,15.2,42.2,28.9,5.8,16.7-10.3,26.6-24.3,15.9-12.8-9.8-18.3-29.2-17.9-44.8Z" fill="#204d76"/>
        <path d="M80.3,135.4c7.9,7.6,14.8,17.9,20,27.4-13,3.8-28.7,1.7-40.5-5.1-28.9-16.6-6.6-48.4,20.5-22.4Z" fill="#204d76"/>
        <path d="M131.5,183.7l-17.5.4c-1.1-5.4-2.8-11.1-3.5-16.4,2.9-.4,9.3-5.2,11.5-5.2s10.6,4.4,11,4.9c2,1.9-2.7,13-1.5,16.3Z" fill="#204d76"/>
      </g>
    </g>
  </g>
</svg>